<?xml version="1.0" standalone="no"?>
<!DOCTYPE svg PUBLIC "-//W3C//DTD SVG 20010904//EN"
 "http://www.w3.org/TR/2001/REC-SVG-20010904/DTD/svg10.dtd">
<svg version="1.0" xmlns="http://www.w3.org/2000/svg"
 width="400.000000pt" height="400.000000pt" viewBox="0 0 400.000000 400.000000"
 preserveAspectRatio="xMidYMid meet">
<metadata>
Created by potrace 1.14, written by Peter Selinger 2001-2017
</metadata>
<g transform="translate(0.000000,400.000000) scale(0.100000,-0.100000)"
fill="#000000" stroke="none">
<path d="M1718 3304 c-2 -1 -39 -10 -83 -19 -205 -43 -427 -150 -585 -285 -72
-61 -159 -153 -209 -220 -22 -30 -45 -61 -51 -67 -6 -7 -8 -13 -4 -13 4 0 -2
-10 -14 -22 -17 -19 -71 -126 -113 -223 -8 -20 -40 -130 -40 -140 0 -2 -5 -19
-10 -37 -8 -30 -16 -150 -23 -365 -1 -52 2 -84 8 -87 8 -3 8 -5 0 -5 -7 -1 -2
-34 13 -93 12 -51 24 -100 26 -108 1 -8 5 -19 8 -25 4 -5 12 -31 20 -57 7 -27
17 -48 21 -48 4 0 8 -4 8 -10 0 -16 52 -125 61 -128 5 -2 7 -8 3 -13 -3 -5 0
-9 5 -9 6 0 11 -9 11 -20 0 -11 7 -20 16 -20 8 0 13 -4 10 -9 -3 -4 3 -16 14
-26 11 -10 20 -22 20 -26 0 -11 24 -40 88 -106 28 -30 52 -59 52 -64 0 -5 4
-9 8 -9 4 0 24 -15 44 -34 20 -19 39 -32 42 -29 3 4 6 -1 6 -10 0 -8 8 -18 18
-21 10 -4 28 -15 40 -26 11 -11 26 -21 33 -22 6 -2 23 -13 37 -26 14 -12 31
-22 38 -22 8 0 14 -5 14 -12 0 -6 3 -9 6 -5 4 3 13 -1 21 -9 8 -8 19 -12 24
-9 5 4 9 2 9 -3 0 -9 37 -25 53 -23 4 1 7 -4 7 -9 0 -6 6 -10 13 -8 6 1 26 -5
43 -15 17 -9 34 -13 38 -10 3 4 6 1 6 -5 0 -7 3 -11 8 -10 14 3 82 -14 87 -23
3 -4 14 -6 25 -4 11 2 20 0 20 -4 0 -5 10 -7 23 -7 12 1 27 0 32 -3 10 -6 27
-7 170 -11 39 -2 76 -7 83 -13 7 -6 12 -6 12 0 0 11 30 13 45 4 13 -9 77 -7
93 2 7 5 12 3 12 -5 0 -9 3 -9 8 -2 4 6 19 10 35 10 15 -1 27 2 27 6 0 4 5 8
11 8 5 0 7 -6 3 -12 -4 -7 1 -6 12 3 10 9 29 15 42 14 12 -1 22 2 22 6 0 4 11
6 25 4 14 -1 25 1 25 4 0 5 63 28 100 37 14 3 70 28 111 49 26 13 49 21 53 18
3 -4 6 -1 6 5 0 7 7 12 15 12 8 0 15 4 15 8 0 5 16 14 35 22 19 7 32 17 29 22
-3 4 2 8 10 8 8 0 31 14 49 30 19 17 37 30 40 30 8 0 51 38 131 117 79 77 85
103 24 98 -26 -2 -50 -19 -106 -73 -39 -38 -111 -95 -158 -127 -88 -59 -234
-135 -257 -135 -7 0 -18 -5 -25 -12 -7 -7 -12 -9 -12 -5 0 4 -9 3 -21 -3 -11
-6 -28 -13 -37 -15 -9 -2 -39 -10 -67 -18 -27 -8 -60 -13 -72 -12 -13 1 -23
-2 -23 -6 0 -4 -8 -6 -17 -4 -10 1 -24 -2 -30 -8 -9 -6 -13 -6 -13 2 0 7 -8 8
-22 3 -19 -7 -263 -8 -263 -2 0 1 -13 3 -30 5 -70 7 -115 16 -195 40 -47 14
-90 27 -95 28 -26 6 -195 91 -195 99 0 4 -6 8 -14 8 -14 0 -113 70 -169 120
-208 182 -345 409 -401 662 -9 42 -18 93 -19 112 -1 20 -4 36 -7 36 -9 0 -5
214 3 228 5 7 3 12 -3 12 -6 0 -8 5 -5 10 4 6 8 23 10 38 14 107 42 214 76
290 15 34 25 62 21 62 -4 0 -2 4 3 8 6 4 22 30 35 59 13 28 29 49 35 46 5 -4
7 -3 3 2 -4 4 12 34 35 67 23 33 49 71 58 84 9 13 19 21 22 17 4 -3 7 0 7 8 0
16 40 55 53 51 5 -1 6 1 3 6 -5 8 90 99 109 104 6 1 22 15 38 31 15 15 27 24
27 21 0 -4 10 2 23 14 13 12 27 19 30 15 4 -3 7 -2 7 4 0 9 26 21 40 19 3 -1
16 9 29 21 13 12 28 20 33 17 4 -3 8 0 8 5 0 6 4 11 9 11 5 0 22 5 38 12 15 6
31 11 36 10 4 -1 7 3 7 10 0 6 3 9 6 6 3 -4 21 0 40 8 19 8 34 11 34 8 0 -4 6
-1 13 5 8 6 17 8 20 4 4 -3 7 0 7 7 0 7 3 11 6 8 3 -3 26 0 52 6 26 7 57 12
69 11 12 -1 20 2 17 7 -3 5 11 7 30 5 22 -3 36 0 36 7 0 6 4 5 9 -3 5 -7 11
-9 14 -4 3 5 52 8 109 7 190 -3 178 -1 171 -26 -3 -13 -6 -98 -6 -190 -1 -184
0 -182 -55 -90 -13 21 -30 39 -38 39 -7 0 -11 -4 -8 -9 6 -9 -79 -98 -92 -98
-8 0 13 26 48 60 15 15 24 31 19 38 -7 12 -51 5 -51 -8 0 -5 -8 -11 -19 -15
-22 -7 -111 -95 -111 -110 0 -13 -42 -53 -90 -86 -43 -29 -49 -49 -15 -49 14
0 25 3 25 8 0 4 15 14 33 21 17 8 40 24 51 35 10 12 23 20 28 18 5 -1 7 1 4 6
-3 5 8 18 24 30 27 21 29 21 25 3 -3 -15 1 -19 17 -16 11 2 26 9 33 15 11 9
13 6 11 -12 -2 -17 3 -24 15 -25 13 -1 25 12 39 44 11 25 20 52 20 59 0 21 21
17 27 -5 3 -11 11 -22 19 -25 8 -3 14 -10 14 -16 0 -6 9 -20 19 -32 16 -16 18
-25 9 -43 -7 -17 -7 -33 0 -54 7 -20 7 -33 1 -37 -6 -4 -6 -10 1 -19 7 -9 8
-15 1 -19 -7 -4 -7 -15 -1 -31 6 -15 6 -27 0 -30 -6 -4 -10 -2 -10 4 0 6 -17
14 -37 19 -42 11 -83 11 -83 1 0 -3 -15 -6 -32 -5 -38 0 -129 -11 -135 -17 -2
-2 -1 -11 2 -19 4 -11 21 -14 66 -13 33 0 65 -3 72 -7 9 -5 8 -8 -4 -8 -8 0
-26 -10 -39 -22 -14 -13 -26 -22 -27 -20 -4 3 -138 -103 -165 -130 -15 -15
-15 -18 -3 -18 8 0 15 -5 15 -11 0 -5 5 -7 10 -4 6 4 7 11 4 17 -5 7 -2 9 8 5
9 -3 19 -3 23 1 4 4 10 7 13 7 4 1 21 8 38 18 17 9 34 13 38 10 3 -4 6 1 6 9
0 10 7 15 18 13 9 -2 19 -4 22 -4 3 -1 -1 -5 -8 -9 -10 -7 -26 -52 -18 -52 1
0 17 11 36 25 19 14 31 25 27 25 -4 0 5 14 20 30 26 29 43 35 27 8 -5 -7 -9
-22 -10 -33 0 -11 -4 -30 -8 -42 -4 -12 -3 -31 3 -41 9 -17 7 -19 -17 -15 -15
1 -21 0 -14 -3 6 -3 10 -10 6 -15 -3 -5 0 -9 7 -9 29 0 -4 -13 -39 -16 -51 -4
-66 -7 -73 -17 -3 -5 -13 -1 -22 7 -8 9 -20 16 -26 16 -6 0 -11 3 -11 8 0 4
-19 7 -42 6 -69 -1 -78 -3 -75 -16 2 -14 -99 -19 -125 -6 -13 6 -18 5 -18 -4
-1 -7 -9 -2 -20 11 -26 30 -18 41 31 41 25 0 42 5 45 14 4 10 12 13 27 7 49
-17 81 17 55 58 -16 26 -39 34 -103 36 -44 1 -50 4 -53 23 -2 12 -9 22 -15 23
-82 7 -117 6 -118 -2 -3 -22 -7 -50 -8 -62 -1 -13 -88 -15 -181 -4 -25 2 -49
-17 -50 -42 0 -7 11 -26 25 -43 14 -16 25 -26 25 -23 0 4 7 2 15 -5 12 -10 15
-10 15 0 0 9 8 7 26 -5 15 -9 23 -12 20 -6 -9 14 5 14 38 1 19 -7 26 -6 26 3
0 16 20 -14 20 -31 0 -10 -16 -12 -62 -9 -50 3 -70 0 -96 -16 -18 -10 -42 -17
-52 -14 -11 3 -20 1 -20 -4 0 -8 -31 -1 -40 10 -3 4 -16 11 -30 18 -25 10 -26
10 -25 -33 0 -24 3 -44 7 -44 4 0 5 -9 3 -20 -2 -11 1 -22 6 -25 5 -4 7 -11 4
-16 -4 -5 -1 -9 4 -9 6 0 11 -9 11 -19 0 -37 104 -219 144 -252 19 -16 19 -16
-12 -39 -17 -12 -33 -33 -36 -45 -5 -20 -37 -39 -58 -36 -5 1 -8 -3 -8 -9 0
-5 -5 -10 -10 -10 -9 0 -113 -61 -129 -76 -2 -2 3 -9 10 -16 9 -9 35 -13 74
-12 33 1 60 2 60 4 0 1 12 4 27 6 46 8 95 32 116 58 11 14 21 23 24 21 3 -3
16 9 29 26 21 27 69 64 56 42 -3 -4 -8 -53 -11 -108 -10 -152 -10 -150 -60
-159 -16 -3 -33 -9 -37 -13 -10 -10 21 -74 32 -67 5 3 9 0 9 -6 0 -8 6 -8 20
0 11 6 20 7 20 3 0 -5 20 -8 44 -9 41 0 46 3 66 38 20 36 27 73 35 198 2 30 6
64 8 75 3 11 0 26 -6 33 -6 8 -6 12 2 12 14 0 51 -37 51 -51 0 -5 5 -7 10 -4
6 3 10 2 10 -3 0 -6 14 -15 30 -21 17 -5 30 -15 30 -20 0 -11 14 -29 68 -89
17 -20 32 -39 32 -43 0 -8 20 -7 35 3 6 3 31 5 57 5 51 0 69 -18 43 -43 -8 -8
-19 -31 -24 -51 -6 -20 -20 -46 -32 -59 -17 -19 -25 -21 -40 -11 -14 9 -26 7
-54 -6 -42 -20 -59 -22 -49 -5 4 6 7 27 6 46 -1 23 5 40 18 51 26 22 28 62 7
95 -18 27 -19 27 -38 10 -10 -9 -19 -23 -19 -29 0 -7 -16 -20 -35 -29 -19 -9
-36 -21 -36 -26 -1 -6 -2 -14 -3 -18 0 -5 -9 -17 -19 -27 -16 -15 -35 -50 -42
-77 -2 -5 -4 -9 -5 -10 -1 -2 -4 -21 -5 -43 -3 -31 1 -42 18 -54 12 -9 25 -15
29 -14 16 6 29 -31 32 -98 2 -41 5 -76 6 -79 1 -3 2 -8 1 -12 0 -5 4 -8 10 -8
6 0 8 -8 5 -18 -4 -10 3 -31 17 -49 29 -40 42 -25 41 45 0 29 3 55 8 58 4 3 4
13 -1 23 -6 10 -6 23 -1 31 5 8 5 21 0 30 -5 9 -5 22 0 30 4 7 6 24 4 36 -6
31 23 59 75 75 32 10 42 9 54 -2 7 -8 12 -20 9 -27 -2 -6 3 -12 11 -12 9 0 18
-6 20 -12 4 -10 6 -10 6 0 1 7 6 10 11 7 6 -3 10 -1 10 5 0 19 44 60 57 52 6
-4 14 -21 17 -37 2 -17 5 -30 6 -30 5 0 11 -71 10 -140 0 -95 -10 -107 -83
-104 -58 3 -74 -10 -50 -37 25 -28 49 -37 108 -39 46 -2 52 1 92 42 24 24 43
46 44 51 0 4 2 30 3 58 2 28 6 57 11 63 4 7 -1 18 -11 25 -13 10 -17 26 -15
76 2 66 7 84 21 75 4 -3 11 2 14 11 4 9 13 14 21 10 8 -3 15 -1 15 5 0 6 5 7
11 4 10 -7 79 34 79 47 0 3 -12 20 -26 37 -18 22 -35 31 -55 31 -16 0 -29 -5
-29 -11 0 -5 -4 -7 -10 -4 -5 3 -10 1 -10 -4 0 -6 -10 -11 -22 -11 -13 -1 -39
-6 -58 -13 -43 -16 -70 -11 -67 11 4 26 17 43 28 37 5 -4 9 -1 9 5 0 6 4 9 8
6 4 -3 16 10 26 29 13 23 24 32 37 30 29 -6 31 10 6 37 -43 47 -238 166 -267
162 -4 0 -126 84 -175 121 -10 8 -23 15 -27 15 -4 0 -8 6 -8 13 0 18 57 39 64
23 3 -7 5 -7 5 2 1 7 6 10 11 7 6 -3 10 -1 10 5 0 7 6 10 13 7 21 -8 98 70
111 111 4 12 12 22 17 22 6 0 8 3 6 8 -2 4 4 15 15 25 10 9 18 14 18 10 0 -4
6 1 13 12 16 24 28 65 19 65 -5 0 -7 56 -3 79 1 2 8 -2 16 -9 12 -10 15 -10
15 1 0 9 3 10 8 4 11 -15 30 -17 52 -5 11 6 20 8 20 4 0 -10 -41 -44 -53 -44
-6 0 -7 -3 -4 -6 3 -4 2 -15 -3 -24 -12 -23 12 -21 40 3 20 16 32 20 63 18 11
-1 15 -6 11 -13 -4 -6 -3 -8 3 -5 6 4 14 21 18 39 4 18 8 35 9 38 1 3 5 11 9
18 5 7 0 27 -14 48 -19 31 -20 39 -9 62 8 15 13 30 12 35 -1 4 2 7 7 7 7 0 19
25 25 52 0 3 4 10 9 14 4 4 7 16 7 26 0 10 5 18 10 18 9 0 14 -23 13 -57 -1
-7 2 -13 6 -13 3 0 8 -26 10 -57 6 -109 6 -183 -1 -183 -4 0 -3 -12 3 -27 5
-15 10 -61 10 -103 0 -42 4 -82 9 -90 6 -8 10 -12 10 -7 0 4 14 1 30 -8 17 -9
30 -13 30 -10 0 3 8 2 18 -3 9 -5 28 -6 41 -3 22 6 24 12 25 64 1 31 -1 57 -4
57 -3 0 -4 19 -2 42 2 24 2 52 2 63 -6 91 -4 129 8 133 7 2 12 -2 11 -9 -4
-20 11 -82 23 -96 19 -23 36 -15 31 15 l-5 27 26 -30 c21 -25 27 -28 36 -15 5
8 10 10 10 4 0 -7 16 -19 35 -28 19 -9 35 -21 35 -25 0 -5 9 -11 20 -14 16 -4
20 0 20 19 0 13 -4 24 -10 24 -5 0 -10 6 -10 13 0 7 -12 27 -27 45 -16 17 -37
43 -47 57 -25 34 -102 79 -121 71 -8 -3 -15 -12 -15 -20 0 -8 -5 -18 -12 -22
-7 -4 -8 -3 -4 4 4 7 2 12 -4 12 -6 0 -10 8 -9 18 1 9 0 19 -1 22 -1 3 -3 34
-5 70 -2 36 -4 65 -5 65 -6 0 -5 64 1 88 4 15 5 27 1 27 -4 0 -7 17 -7 38 1
41 21 86 35 77 6 -4 6 3 1 19 -10 26 7 44 25 26 5 -5 15 -5 24 0 12 8 12 10
-3 16 -9 3 -17 13 -17 21 0 8 5 11 12 7 7 -4 8 -3 4 4 -5 9 -13 9 -28 1 -12
-7 -18 -7 -14 -1 3 6 0 13 -6 15 -10 4 -10 6 0 6 6 1 12 8 12 16 0 8 6 15 13
15 8 0 7 4 -3 10 -8 5 -10 10 -4 10 6 0 11 6 12 13 9 73 15 103 24 108 6 4 5
9 -3 12 -10 4 -10 6 -1 6 17 1 15 28 -3 28 -8 0 -16 -6 -16 -14 -1 -13 -4 -26
-9 -40 -1 -5 -2 -12 -1 -17 1 -4 -3 -13 -8 -20 -5 -6 -12 -32 -16 -58 -4 -27
-12 -48 -17 -48 -6 0 -8 7 -4 15 3 8 2 15 -2 15 -15 0 -13 167 2 204 14 33 14
37 -6 50 -31 22 -16 58 20 50 15 -4 32 -10 37 -15 10 -7 16 -9 35 -9 10 0 3
-50 -9 -60 -14 -12 -10 -34 9 -47 11 -8 20 -21 20 -29 0 -8 6 -14 13 -14 9 0
8 -3 -2 -9 -7 -5 -9 -10 -3 -12 6 -2 12 -13 14 -24 1 -11 7 -23 12 -27 19 -13
14 -42 -10 -64 -13 -13 -24 -29 -24 -36 0 -8 3 -9 8 -3 14 20 32 15 32 -9 0
-14 4 -27 9 -31 5 -3 12 -18 16 -34 3 -16 13 -35 21 -42 15 -12 17 -8 17 34 0
9 2 17 4 17 8 0 33 -28 33 -38 0 -5 14 -9 32 -9 18 0 34 -5 36 -11 2 -7 10
-12 17 -12 7 0 15 -5 17 -10 2 -6 13 -12 25 -14 24 -5 25 12 4 38 -7 9 -10 16
-6 16 9 0 -71 96 -113 135 -18 16 -35 42 -37 57 -3 15 -10 39 -15 52 -6 16 -6
27 0 31 6 4 10 -1 10 -10 0 -9 4 -14 8 -11 10 6 42 -29 42 -45 0 -5 4 -8 9 -5
5 3 11 -1 14 -8 3 -8 16 -20 28 -26 24 -13 23 -9 -14 43 -10 16 -16 31 -13 35
4 3 10 2 14 -4 4 -6 22 -17 40 -25 17 -8 32 -17 32 -21 0 -5 4 -8 10 -8 5 0
31 -13 59 -29 27 -16 52 -27 55 -24 3 4 6 0 6 -7 0 -7 3 -10 7 -7 3 4 12 2 19
-4 8 -7 14 -7 19 0 6 10 -69 86 -118 120 -12 8 -33 26 -47 40 -14 13 0 7 30
-15 79 -55 136 -108 218 -201 74 -83 92 -108 92 -120 0 -7 3 -13 8 -13 9 0 46
-62 44 -72 -1 -5 2 -8 7 -8 8 0 24 -37 22 -52 -1 -5 3 -8 8 -8 5 0 12 -13 16
-30 4 -16 11 -30 16 -30 5 0 8 -3 7 -7 -1 -8 4 -24 23 -71 5 -13 9 -32 9 -42
0 -11 4 -20 10 -20 5 0 7 -7 4 -15 -4 -8 -2 -15 2 -15 5 0 9 -10 10 -22 1 -13
5 -41 9 -63 11 -59 16 -111 18 -197 2 -43 6 -81 10 -85 5 -4 21 -8 38 -8 32
-1 32 -2 30 105 0 53 -7 118 -17 170 -2 14 -7 42 -10 64 -4 21 -13 55 -21 75
-9 20 -15 37 -14 39 3 4 -12 57 -19 67 -3 6 -12 29 -20 53 -7 23 -16 42 -20
42 -4 0 -7 6 -7 13 0 6 -14 36 -32 65 -17 29 -31 57 -31 62 0 6 -4 10 -10 10
-5 0 -10 6 -10 13 0 7 -11 25 -25 40 -14 15 -24 27 -21 27 8 0 -48 63 -129
145 -81 82 -195 175 -214 175 -6 0 -11 4 -11 8 0 4 -22 19 -50 33 -27 13 -50
28 -50 32 0 5 -4 5 -10 2 -5 -3 -10 -1 -10 4 0 6 -4 11 -9 11 -5 0 -22 5 -38
12 -15 6 -30 12 -33 13 -3 1 -14 5 -25 10 -70 29 -115 44 -115 39 0 -4 -6 -2
-12 4 -12 9 -33 15 -96 27 -47 9 -478 26 -484 19z m410 -109 c0 -14 -4 -25 -8
-25 -5 0 -7 8 -5 18 2 9 4 20 4 25 2 18 9 4 9 -18z m2 -80 c0 -25 -4 -45 -9
-45 -5 0 -8 20 -8 45 2 59 17 59 17 0z m-495 -975 c5 -26 -14 -80 -28 -80 -5
0 -6 -4 -3 -8 5 -8 -24 -42 -61 -73 -25 -20 -75 -19 -79 3 -1 8 5 15 15 15 33
0 42 3 37 12 -3 4 3 16 14 26 16 14 17 21 7 39 -7 11 -13 22 -14 24 -1 3 -27
9 -45 11 -15 2 -8 41 7 42 29 3 55 7 58 9 1 1 14 3 30 4 15 2 30 6 34 10 10 9
23 -7 28 -34z m-300 -49 c-3 -6 -12 -8 -19 -5 -22 8 -86 -38 -86 -62 0 -24 31
-40 73 -39 15 1 28 -2 28 -5 12 -52 2 -65 -50 -61 -36 2 -83 39 -87 69 -2 9
-16 30 -33 46 -74 75 -86 97 -33 60 12 -8 22 -12 22 -8 0 3 8 0 17 -7 15 -12
16 -12 8 1 -8 13 -6 13 8 2 13 -12 23 -10 61 13 25 15 46 23 46 19 0 -4 5 -3
11 3 14 14 44 -10 34 -26z"/>
<path d="M1978 1866 c-39 -19 -66 -70 -65 -123 0 -27 5 -57 11 -68 16 -28 47
-55 57 -49 5 3 9 1 9 -5 0 -9 55 -9 89 0 42 11 69 62 69 131 0 47 -5 60 -30
87 -16 17 -34 32 -41 32 -59 6 -80 5 -99 -5z m74 -50 c33 21 47 -98 15 -130
-21 -21 -60 -20 -79 2 -20 23 -29 62 -15 62 7 0 5 5 -3 10 -10 6 -11 10 -2 10
6 0 12 10 12 22 0 12 3 18 6 15 4 -3 16 0 28 9 13 8 22 10 24 4 2 -6 8 -7 14
-4z"/>
<path d="M2186 1852 c-12 -37 -17 -244 -7 -237 6 3 11 2 11 -3 0 -21 40 1 41
22 3 81 12 89 49 49 16 -17 27 -33 24 -36 -3 -3 6 -17 20 -32 16 -17 26 -22
26 -14 0 12 2 12 9 0 7 -11 11 -10 19 5 8 15 6 27 -11 54 -11 19 -25 38 -30
41 -11 8 1 32 12 25 4 -3 15 8 24 24 16 26 16 33 3 64 -16 38 -28 42 -133 50
-42 4 -53 1 -57 -12z m131 -58 c11 -10 9 -16 -8 -28 -12 -8 -28 -13 -35 -10
-46 14 -46 14 -35 28 6 7 8 16 5 19 -3 3 9 5 27 5 19 -1 39 -7 46 -14z"/>
<path d="M2432 1851 c-7 -4 -14 -26 -16 -48 -2 -22 -7 -46 -11 -53 -5 -8 -4
-11 2 -7 6 4 8 -14 5 -48 -5 -67 3 -104 23 -101 29 4 34 21 38 129 4 86 2 111
-10 122 -17 17 -14 17 -31 6z"/>
<path d="M2515 1841 c-10 -17 -14 -222 -5 -245 5 -11 9 -15 9 -9 1 9 8 10 26
3 16 -6 25 -6 25 0 0 5 6 7 13 5 63 -23 128 -3 106 33 -8 13 -24 17 -60 17
-65 -1 -72 5 -59 40 6 16 14 25 18 20 12 -17 84 -12 96 7 16 26 -3 38 -63 39
-47 2 -52 4 -49 23 2 16 9 20 28 18 87 -8 89 -8 95 17 3 13 4 26 1 29 -11 10
-174 13 -181 3z"/>
<path d="M2732 1830 c0 -3 0 -7 -1 -10 -1 -3 -4 -39 -6 -80 -2 -41 -5 -88 -8
-103 -3 -17 2 -34 10 -43 16 -15 58 -20 49 -5 -4 5 0 12 6 14 10 4 10 6 1 6
-9 1 -10 8 -3 25 5 13 6 26 3 30 -3 3 -2 18 2 33 7 28 7 28 16 5 5 -12 7 -23
6 -25 -1 -1 8 -17 21 -34 13 -18 21 -33 18 -33 -3 0 2 -8 12 -18 15 -17 47
-21 59 -8 3 3 7 50 8 106 2 56 6 105 9 108 10 9 -16 32 -35 32 -22 0 -21 2
-23 -72 -1 -32 -4 -59 -7 -62 -3 -3 -19 23 -37 58 -18 35 -38 69 -45 74 -13
11 -56 13 -55 2z"/>
<path d="M2957 1808 c-7 -25 8 -39 38 -35 19 2 20 -3 18 -102 -2 -57 0 -101 3
-98 4 4 15 2 25 -4 13 -7 19 -6 19 1 0 6 4 9 8 6 5 -3 9 25 9 62 1 120 4 133
32 129 14 -2 31 1 37 7 11 10 8 45 -5 47 -3 0 -45 2 -92 5 -83 4 -87 3 -92
-18z"/>
<path d="M3220 1807 c-8 -7 -17 -21 -18 -32 -2 -11 -9 -26 -15 -34 -6 -7 -12
-18 -13 -25 -1 -6 -15 -39 -32 -73 -17 -35 -26 -63 -21 -63 6 0 8 -4 5 -9 -9
-14 43 -10 55 5 6 8 8 14 4 14 -4 0 -2 6 4 13 18 23 101 11 101 -14 0 -18 37
-51 45 -40 3 6 10 9 15 6 5 -3 7 2 5 12 -9 49 -19 79 -28 91 -5 6 -6 12 -2 12
4 0 3 6 -3 13 -6 7 -13 24 -16 37 -8 42 -27 90 -36 90 -5 0 -14 2 -22 5 -7 2
-20 -1 -28 -8z m39 -124 c1 -7 -8 -13 -19 -13 -23 0 -23 0 -9 37 10 26 12 27
19 8 5 -11 9 -26 9 -32z"/>
<path d="M3394 1799 c-4 -6 -8 -45 -10 -85 -1 -41 -6 -79 -9 -84 -3 -6 -1 -10
5 -10 7 0 8 -6 0 -19 -7 -14 -7 -22 1 -27 8 -4 7 -9 -2 -16 -10 -6 -7 -8 11
-7 14 1 27 0 30 -1 3 -1 32 -2 64 -3 47 -1 62 3 70 17 15 23 -15 40 -69 41
-33 0 -40 3 -40 20 0 11 -3 25 -7 31 -4 6 -4 14 0 18 11 12 9 120 -2 128 -16
11 -34 10 -42 -3z"/>
<path d="M2280 1555 c-4 -5 -10 -51 -12 -100 -2 -50 -7 -96 -11 -102 -4 -6 -3
-14 3 -18 6 -4 8 -11 5 -16 -5 -7 23 -12 51 -8 4 0 11 -5 15 -13 5 -7 9 -8 9
-2 0 6 19 10 48 9 45 -1 75 11 65 28 -2 4 3 10 11 13 12 4 14 15 10 38 -3 17
-9 33 -15 34 -12 5 -11 28 2 51 16 24 -8 81 -33 81 -10 0 -18 3 -18 8 0 11
-120 9 -130 -3z m88 -51 c6 -1 19 -2 27 -2 8 -1 15 -9 15 -17 0 -15 -5 -17
-40 -17 -49 0 -50 0 -38 27 6 14 14 22 17 18 3 -4 12 -8 19 -9z m42 -108 c5
-7 5 -17 0 -26 -6 -8 -10 -11 -10 -7 0 4 -9 3 -19 -3 -13 -6 -22 -7 -26 0 -3
5 -11 7 -18 4 -8 -3 -13 4 -13 21 0 22 4 25 38 23 21 -1 42 -6 48 -12z"/>
<path d="M2557 1493 c-14 -32 -27 -65 -29 -73 -2 -8 -5 -17 -8 -20 -6 -6 -40
-78 -40 -85 0 -3 3 -5 6 -4 4 0 10 -5 15 -12 6 -10 11 -10 22 -1 7 7 18 8 22
4 5 -4 5 -1 1 6 -10 17 21 45 44 39 10 -3 20 -1 22 4 4 13 36 -12 40 -31 5
-25 21 -37 46 -32 19 4 22 9 17 26 -3 11 -7 31 -9 43 -2 13 -9 29 -16 38 -7 8
-10 15 -7 15 3 0 -5 30 -18 68 -20 61 -25 67 -52 70 -28 3 -32 -1 -56 -55z
m57 -55 c-3 -4 -1 -8 4 -8 5 0 9 -7 9 -15 0 -9 -8 -13 -21 -11 -12 2 -20 6
-19 10 2 3 6 18 9 32 5 18 9 22 15 13 4 -7 5 -17 3 -21z"/>
<path d="M2767 1542 c-13 -2 -17 -10 -14 -23 3 -10 2 -21 -2 -23 -4 -3 -6 -30
-6 -61 1 -31 -3 -59 -7 -61 -5 -3 -4 -12 2 -19 7 -8 7 -15 1 -19 -14 -9 -1
-44 19 -49 21 -5 48 8 37 19 -4 4 -1 14 6 22 6 9 8 13 2 10 -6 -4 -10 10 -10
33 0 54 12 49 21 -8 6 -47 33 -112 34 -84 0 10 3 11 14 2 13 -11 22 -2 31 32
2 4 4 10 5 15 1 4 3 12 5 17 1 6 3 12 4 15 2 3 4 13 6 23 8 45 16 26 12 -29
-5 -69 -1 -80 31 -80 18 0 22 6 23 36 0 19 3 77 5 128 2 50 1 92 -3 93 -38 5
-63 5 -71 0 -5 -3 -17 -36 -27 -74 -19 -70 -25 -76 -32 -30 -11 76 -22 113
-32 114 -3 0 -13 2 -21 3 -8 1 -23 1 -33 -2z"/>
<path d="M3056 1531 c-26 -5 -30 -11 -33 -46 -1 -22 -5 -45 -7 -52 -3 -7 -1
-15 5 -19 6 -3 6 -10 1 -17 -9 -12 -10 -113 -1 -122 3 -3 41 -5 84 -6 74 -1
80 0 100 25 22 28 31 76 14 76 -5 0 -8 4 -5 9 4 5 1 11 -5 13 -8 3 -6 15 4 41
9 20 12 37 6 37 -5 0 -9 7 -9 15 0 19 -37 39 -75 40 -16 0 -34 3 -40 6 -5 3
-23 3 -39 0z m107 -73 c-2 -5 -3 -13 -3 -19 0 -6 -10 -9 -22 -8 -13 2 -29 0
-35 -4 -7 -5 -14 -5 -14 0 -8 49 -8 49 35 43 23 -3 40 -8 39 -12z m0 -97 c15
-15 -18 -42 -45 -39 -38 6 -49 17 -38 38 8 14 18 18 42 15 17 -2 35 -8 41 -14z"/>
<path d="M3292 1485 c-34 -31 -37 -38 -39 -92 0 -31 4 -67 9 -78 39 -74 134
-85 191 -23 38 41 47 109 22 161 -19 41 -47 58 -102 63 -39 3 -48 -1 -81 -31z
m124 -47 c19 -24 16 -82 -4 -106 -23 -26 -82 -31 -82 -7 0 8 -4 15 -10 15 -14
0 -13 63 2 95 8 18 17 24 30 19 10 -3 18 0 18 6 0 13 31 -2 46 -22z"/>
<path d="M3595 1501 c-60 -18 -87 -62 -85 -138 1 -54 3 -63 12 -63 4 0 8 -7 8
-16 0 -8 5 -12 10 -9 6 3 10 -1 10 -10 0 -11 5 -15 15 -12 8 4 17 2 20 -2 6
-11 55 -20 55 -11 0 5 8 6 18 4 10 -3 30 8 51 30 31 31 34 42 36 96 2 53 -1
64 -24 89 -37 41 -82 56 -126 42z m62 -63 c12 -6 20 -15 17 -20 -3 -4 -1 -8 4
-8 12 0 9 -60 -3 -81 -26 -43 -86 -40 -102 5 -11 30 -10 70 2 78 6 4 11 12 11
18 2 15 2 16 27 18 12 1 32 -3 44 -10z"/>
</g>
</svg>
