<svg width="60" height="60" viewBox="0 0 40 36" fill="none" xmlns="http://www.w3.org/2000/svg">
<g clip-path="url(#clip0)">
<path d="M20.371 16.558H13.656V29.666H20.371V16.558Z" fill="#9AAA97"/>
<path d="M14.4341 35.705C14.2261 35.705 14.0601 35.538 14.0601 35.334V3.58197C14.0601 3.37897 14.2261 3.21198 14.4341 3.21198H39.6281C39.8321 3.21198 39.9991 3.37898 39.9991 3.58498V29.441V35.334C39.9991 35.538 39.8321 35.705 39.6281 35.705H14.4341Z" fill="#D5E0D5"/>
<path d="M37.623 5.62598H16.437V33.293H37.623V5.62598Z" fill="white"/>
<path d="M34.2199 2.449H29.219C29.229 2.373 29.242 2.297 29.242 2.215C29.242 0.99 28.253 0 27.027 0C25.804 0 24.814 0.99 24.814 2.215C24.814 2.297 24.83 2.373 24.837 2.449H19.841C19.626 2.449 19.45 2.623 19.45 2.84V6.551C19.45 6.767 19.626 6.942 19.841 6.942H34.221C34.435 6.942 34.611 6.767 34.611 6.551V2.84C34.61 2.623 34.4339 2.449 34.2199 2.449ZM27.028 3.078C26.551 3.078 26.165 2.692 26.165 2.215C26.165 1.736 26.552 1.352 27.028 1.352C27.508 1.352 27.896 1.737 27.896 2.215C27.896 2.692 27.509 3.078 27.028 3.078Z" fill="#BECCBE"/>
<path d="M34.6161 27.496H19.4441V29.863H34.6161V27.496Z" fill="#14A800"/>
<path d="M28.165 10.871H19.759C19.483 10.871 19.259 10.647 19.259 10.371C19.259 10.095 19.483 9.87097 19.759 9.87097H28.165C28.441 9.87097 28.665 10.095 28.665 10.371C28.665 10.647 28.441 10.871 28.165 10.871Z" fill="#E8F1E8"/>
<path d="M34.101 12.7289H19.897C19.621 12.7289 19.397 12.5049 19.397 12.2289C19.397 11.9529 19.621 11.7289 19.897 11.7289H34.101C34.377 11.7289 34.601 11.9529 34.601 12.2289C34.601 12.5049 34.378 12.7289 34.101 12.7289Z" fill="#E8F1E8"/>
<path d="M34.6161 14.25H19.4441V25.532H34.6161V14.25Z" fill="#F2F7F2"/>
<path d="M24.6111 18.495C25.2192 18.495 25.7121 18.002 25.7121 17.394C25.7121 16.7859 25.2192 16.293 24.6111 16.293C24.0031 16.293 23.5101 16.7859 23.5101 17.394C23.5101 18.002 24.0031 18.495 24.6111 18.495Z" fill="#DEBE1A"/>
<path d="M30.2951 18.09C30.2141 18.005 30.0831 18.008 30.0051 18.097L26.2701 22.364C26.2031 22.44 26.0931 22.455 26.0111 22.397L23.5331 20.185C23.4541 20.131 23.3521 20.141 23.2841 20.209L19.4441 24.088V25.532H27.0301H34.6161V22.695L30.2951 18.09Z" fill="#D5E0D5"/>
<path d="M14.07 29.666V18.572C14.07 17.994 14.538 17.527 15.115 17.527H18.819C20.148 17.527 21.335 16.735 21.462 15.412C21.607 13.892 20.417 12.89 18.929 12.89H13.463C12.804 12.89 12.204 13.138 11.753 13.549L8.03895 16.688L7.97695 16.75C7.51895 17.188 6.89895 17.458 6.21495 17.458H4.83295L2.02795 17.465V29.673L14.07 29.666Z" fill="#9AAA97"/>
<path d="M7.036 16.705H0V30.664H7.036V16.705Z" fill="#14A800"/>
</g>
<defs>
<clipPath id="clip0">
<rect width="40" height="35.705" fill="white"/>
</clipPath>
</defs>
</svg>