
<svg width="60" height="60" viewBox="0 0 34 41" fill="none" xmlns="http://www.w3.org/2000/svg">
<path d="M33.751 6.85601C33.751 6.66201 33.593 6.51501 33.4 6.52901C33.4 6.52901 33.339 6.53301 33.239 6.54001C33.01 6.55601 32.78 6.56801 32.549 6.57701C32.317 6.58701 32.07 6.59401 31.854 6.59401C26.157 6.59401 20.999 4.28701 17.264 0.555006C17.256 0.550006 17.247 0.544006 17.247 0.544006C17.246 0.544006 17.237 0.549006 17.229 0.555006C13.493 4.28601 8.33597 6.59401 2.63997 6.59401C2.42297 6.59401 2.17597 6.58701 1.94397 6.57701C1.70997 6.56801 1.47997 6.55501 1.24997 6.53901C1.15197 6.53301 1.09297 6.52901 1.09297 6.52901C0.898967 6.51501 0.740967 6.66201 0.740967 6.85601V23.437C0.740967 23.438 0.740967 23.438 0.740967 23.438C0.740967 23.443 0.740967 23.448 0.740967 23.453C0.740967 32.852 17.246 40.545 17.246 40.545C17.246 40.545 33.751 32.853 33.751 23.453C33.751 23.448 33.751 23.443 33.751 23.438C33.751 23.438 33.751 23.438 33.751 23.437V6.85601Z" fill="#F2F7F2"/>
<path d="M17.246 40.545C17.246 40.545 33.751 32.853 33.751 23.453C33.751 23.448 33.751 23.443 33.751 23.438C33.751 23.438 33.751 23.438 33.751 23.437V6.85601C33.751 6.66201 33.593 6.51501 33.4 6.52901C33.4 6.52901 33.339 6.53301 33.239 6.54001C33.01 6.55601 32.78 6.56801 32.549 6.57701C32.317 6.58701 32.07 6.59401 31.854 6.59401C26.157 6.59401 20.999 4.28701 17.264 0.555006C17.256 0.550006 17.247 0.544006 17.247 0.544006C17.246 0.544006 17.237 0.549006 17.229 0.555006V40.535C17.239 40.541 17.246 40.545 17.246 40.545Z" fill="#E8F1E8"/>
<path d="M21.7119 20.464H20.2019V14.866C20.2019 13.236 18.8769 11.909 17.2449 11.909C15.6169 11.909 14.2889 13.235 14.2889 14.866V20.464H12.7799V14.866C12.7799 12.405 14.7839 10.401 17.2449 10.401C19.7069 10.401 21.7119 12.404 21.7119 14.866V20.464Z" fill="#DEBE1A"/>
<path d="M23.0919 28.379H11.3999C11.1999 28.379 11.0389 28.219 11.0389 28.019V17.449C11.0389 17.249 11.2009 17.088 11.3999 17.088H23.0909C23.2899 17.088 23.4519 17.249 23.4519 17.449V28.019C23.4529 28.219 23.2909 28.379 23.0919 28.379Z" fill="#14A800"/>
<path d="M18.467 21.599C18.467 20.839 17.772 20.241 16.983 20.406C16.517 20.504 16.143 20.884 16.051 21.349C15.925 21.983 16.29 22.552 16.833 22.746C16.839 22.749 16.842 22.755 16.84 22.761L16.08 24.933C16.054 25.009 16.11 25.088 16.19 25.088H18.303C18.383 25.088 18.439 25.009 18.412 24.933L17.649 22.751C18.125 22.585 18.467 22.133 18.467 21.599Z" fill="#00C217"/>
</svg>
