
<svg width="60" height="60" viewBox="0 0 45 42" fill="none" xmlns="http://www.w3.org/2000/svg">
<path d="M7.30002 41.1C7.10002 41.1 6.90002 40.9 6.90002 40.7V5.10001C6.90002 4.90001 7.10002 4.70001 7.30002 4.70001H37.7C37.9 4.70001 38.1 4.90001 38.1 5.10001V35V40.7C38.1 40.9 37.9 41.1 37.7 41.1H7.30002Z" fill="#D5E0D5"/>
<path d="M35 7.89999H10V37.9H35V7.89999Z" fill="white"/>
<path d="M30.8 3.70001H25C25 3.60001 25 3.49999 25 3.39999C25 1.99999 23.9 0.800018 22.4 0.800018C21 0.800018 19.8 1.89999 19.8 3.39999C19.8 3.49999 19.8 3.60001 19.8 3.70001H14C13.8 3.70001 13.5 3.90001 13.5 4.20001V8.5C13.5 8.8 13.7 9 14 9H30.7C30.9 9 31.2 8.8 31.2 8.5V4.20001C31.3 3.90001 31.1 3.70001 30.8 3.70001ZM22.5 4.5C21.9 4.5 21.5 4.1 21.5 3.5C21.5 2.9 21.9 2.5 22.5 2.5C23.1 2.5 23.5 2.9 23.5 3.5C23.5 4 23.1 4.5 22.5 4.5Z" fill="#14A800"/>
<path d="M29.6001 15.5H15.4001C15.0001 15.5 14.6001 15.2 14.6001 14.7C14.6001 14.2 14.9001 13.9 15.4001 13.9H29.6001C30.0001 13.9 30.4001 14.2 30.4001 14.7C30.4001 15.2 30.0001 15.5 29.6001 15.5Z" fill="#E8F1E8"/>
<path d="M15.3 20.8C15.3 21.4 14.9 21.8 14.3 21.8C13.7 21.8 13.3 21.4 13.3 20.8C13.3 20.2 13.7 19.8 14.3 19.8C14.9 19.8 15.3 20.2 15.3 20.8Z" fill="#FF4B25"/>
<path d="M15.3 25.8C15.3 26.4 14.9 26.8 14.3 26.8C13.7 26.8 13.3 26.4 13.3 25.8C13.3 25.2 13.7 24.8 14.3 24.8C14.9 24.8 15.3 25.3 15.3 25.8Z" fill="#E8F1E8"/>
<path d="M15.3 30.9C15.3 31.5 14.9 31.9 14.3 31.9C13.7 31.9 13.3 31.5 13.3 30.9C13.3 30.3 13.7 29.9 14.3 29.9C14.9 29.9 15.3 30.3 15.3 30.9Z" fill="#E8F1E8"/>
<path d="M31.7001 21.5H18.5001C18.1001 21.5 17.7001 21.2 17.7001 20.7C17.7001 20.2 18.0001 19.9 18.5001 19.9H31.7001C32.1001 19.9 32.5001 20.2 32.5001 20.7C32.5001 21.2 32.1001 21.5 31.7001 21.5Z" fill="#E8F1E8"/>
<path d="M31.7001 26.6H18.5001C18.1001 26.6 17.7001 26.3 17.7001 25.8C17.7001 25.3 18.0001 25 18.5001 25H31.7001C32.1001 25 32.5001 25.3 32.5001 25.8C32.5001 26.3 32.1001 26.6 31.7001 26.6Z" fill="#E8F1E8"/>
<path d="M31.7001 31.6H18.5001C18.1001 31.6 17.7001 31.3 17.7001 30.8C17.7001 30.3 18.0001 30 18.5001 30H31.7001C32.1001 30 32.5001 30.3 32.5001 30.8C32.5001 31.3 32.1001 31.6 31.7001 31.6Z" fill="#E8F1E8"/>
</svg>
