
<svg width="60" height="60" viewBox="0 0 145 124" fill="none" xmlns="http://www.w3.org/2000/svg">
<g clip-path="url(#clip0)">
<path d="M34.5549 61.986C38.9879 56.856 46.4989 48.724 56.3479 40.165L56.3199 39.956L33.6139 40.802C34.1659 39.407 34.2509 38.228 33.6559 37.407C30.0799 32.409 6.48292 46.3 0.676924 49.833C-0.0240761 50.254 -0.215076 51.188 0.265924 51.851L9.20092 64.348C9.67492 65.009 10.6169 65.133 11.2469 64.613C13.3219 62.876 17.8669 59.003 22.3559 54.652C27.4819 56.446 32.4099 58.878 34.5549 61.986Z" fill="#E4EBE4"/>
<path d="M75.278 95.7051C74.768 94.9891 73.834 94.671 72.617 94.642L80.582 73.8801L80.391 73.787C69.113 80.34 58.995 84.825 52.702 87.363C54.862 90.277 55.604 95.421 55.703 100.627C49.983 103.53 44.666 106.685 42.294 108.125C41.593 108.55 41.409 109.481 41.883 110.146L50.818 122.639C51.293 123.3 52.241 123.428 52.871 122.904C58.082 118.544 78.847 100.695 75.278 95.7051Z" fill="#E4EBE4"/>
<path d="M24.7919 73.756C17.4219 79.027 13.5489 87.3541 13.6199 95.7761C21.5709 98.5691 30.7029 97.5891 38.0739 92.3181C45.4449 87.0431 49.3169 78.7161 49.2459 70.2881C41.2949 67.5011 32.1619 68.482 24.7919 73.756Z" fill="#DEBE1A"/>
<path d="M120.351 2.80002C101.979 6.90402 85.1489 16.079 63.7459 32.469C46.1169 45.96 33.8889 60.336 30.1079 65.013L48.0919 90.098C53.7989 87.994 71.3279 81.063 89.7159 68.789C112.145 53.822 126.27 40.863 136.083 24.798C143.48 12.687 144.691 5.52602 144.861 2.94902C144.911 2.30402 144.493 1.72102 143.87 1.55402C141.371 0.88902 134.199 -0.28698 120.351 2.80002Z" fill="#D5E0D5"/>
<path d="M143.862 1.55901C141.37 0.887008 134.198 -0.285992 120.349 2.80101C118.276 3.26501 116.222 3.80301 114.183 4.39801L132.591 30.115C133.809 28.373 134.977 26.611 136.081 24.806C143.479 12.688 144.69 5.53101 144.86 2.95301C144.91 2.30601 144.493 1.72501 143.862 1.55901Z" fill="#14A800"/>
<path d="M99.9249 45.712C95.6629 48.764 89.7369 47.779 86.6779 43.514C83.6329 39.245 84.6179 33.315 88.8799 30.264C93.1489 27.209 99.0749 28.201 102.127 32.466C105.179 36.731 104.201 42.665 99.9249 45.712Z" fill="white"/>
<path d="M19.723 70.442L28.041 64.478C28.657 64.036 29.507 64.177 29.946 64.79L48.241 90.307C48.673 90.915 48.538 91.765 47.923 92.207L39.604 98.169C38.995 98.607 38.139 98.466 37.7 97.857L19.418 72.344C18.972 71.731 19.114 70.882 19.723 70.442Z" fill="#14A800"/>
</g>
<defs>
<clipPath id="clip0">
<rect width="145" height="124" fill="white"/>
</clipPath>
</defs>
</svg>
