
<svg width="60" height="60" viewBox="0 0 131 130" fill="none" xmlns="http://www.w3.org/2000/svg">
<path d="M36.5078 106.361V128.476C36.5078 129.314 37.1868 129.999 38.0248 129.999H128.975C129.826 129.999 130.498 129.313 130.498 128.476V1.517C130.498 0.685 129.825 0 128.975 0H38.0248C37.1868 0 36.5078 0.686 36.5078 1.517V68.841V106.361Z" fill="#F2F7F2"/>
<path d="M58.2768 34.335C59.5238 34.144 60.2408 33.61 60.2348 32.538C60.2348 31.643 59.6948 31.11 58.2668 30.399L55.5828 29.7C51.6538 28.64 49.6798 27.219 49.6668 23.829C49.6578 20.788 51.9648 18.821 55.5388 18.275L55.5328 16.663L58.3888 16.65L58.3948 18.256C60.3628 18.427 61.9718 19.138 63.5808 20.205L61.8098 23.423C60.7368 22.712 59.4798 22.185 58.4138 21.836C58.4138 21.836 57.5188 21.474 55.7288 21.665C54.3038 21.843 53.7678 22.56 53.7678 23.455C53.7738 24.35 54.1358 24.883 55.7478 25.41L58.4268 26.115C62.7118 27.175 64.5078 28.946 64.5208 31.986C64.5268 35.021 62.2168 37.173 58.6488 37.541L58.6548 39.331L55.7988 39.338L55.7928 37.554C53.1138 37.383 50.7848 36.5 48.9978 35.078L51.1268 31.853C52.5548 32.925 53.9898 33.814 55.5958 34.164C57.3848 34.513 58.2768 34.335 58.2768 34.335Z" fill="#14A800"/>
<path d="M118.012 31.579H75.1079C73.7619 31.579 72.6699 30.487 72.6699 29.142C72.6699 27.796 73.7619 26.704 75.1079 26.704H118.011C119.357 26.704 120.449 27.796 120.449 29.142C120.449 30.487 119.357 31.579 118.012 31.579Z" fill="#E8F1E8"/>
<path d="M118.012 65.127H49.7869C48.4409 65.127 47.3489 64.035 47.3489 62.689C47.3489 61.343 48.4409 60.251 49.7869 60.251H118.012C119.358 60.251 120.45 61.343 120.45 62.689C120.45 64.035 119.357 65.127 118.012 65.127Z" fill="#E8F1E8"/>
<path d="M101.931 99.798C100.585 99.798 99.4929 98.706 99.4929 97.36V62.689C99.4929 61.343 100.585 60.251 101.931 60.251C103.277 60.251 104.369 61.343 104.369 62.689V97.36C104.368 98.706 103.276 99.798 101.931 99.798Z" fill="#E8F1E8"/>
<path d="M118.012 82.462H49.7869C48.4409 82.462 47.3489 81.37 47.3489 80.024C47.3489 78.678 48.4409 77.586 49.7869 77.586H118.012C119.358 77.586 120.45 78.678 120.45 80.024C120.45 81.37 119.357 82.462 118.012 82.462Z" fill="#E8F1E8"/>
<path d="M118.012 99.798H49.7869C48.4409 99.798 47.3489 98.706 47.3489 97.36C47.3489 96.014 48.4409 94.922 49.7869 94.922H118.012C119.358 94.922 120.45 96.014 120.45 97.36C120.45 98.706 119.357 99.798 118.012 99.798Z" fill="#E8F1E8"/>
<path d="M76.0629 114.232L8.85091 123.906C7.78191 124.058 6.81291 123.329 6.65491 122.268L0.522914 79.625C0.363914 78.571 1.10691 77.587 2.15391 77.441L69.3829 67.767C70.4369 67.602 71.4169 68.338 71.5669 69.392L77.7019 112.041C77.8509 113.103 77.1199 114.087 76.0629 114.232Z" fill="#D5E0D5"/>
<path d="M74.0098 86.397L3.09385 96.802L1.62085 86.524L72.5278 76.134L74.0098 86.397Z" fill="#BECCBE"/>
<path d="M69.1289 104.044L49.0059 107.054L48.2539 101.835L68.3729 98.833L69.1289 104.044Z" fill="#FF4B25"/>
</svg>
