
<svg width="145" height="112" viewBox="0 0 145 112" fill="none" xmlns="http://www.w3.org/2000/svg">
<path d="M84.1648 64.084L78.9718 72.354L113.617 94.1089L118.81 85.8389L84.1648 64.084Z" fill="#D5E0D5"/>
<path d="M144.628 100.976L138.461 110.8C137.746 111.922 136.252 112.276 135.123 111.561L100.47 89.796C99.344 89.085 98.997 87.587 99.712 86.462L105.879 76.635C106.594 75.498 108.088 75.162 109.221 75.873L143.87 97.631C145.003 98.342 145.336 99.843 144.628 100.976Z" fill="#D5E0D5"/>
<path d="M109.221 75.873C108.088 75.162 106.594 75.498 105.879 76.635L99.712 86.462C98.997 87.587 99.344 89.085 100.47 89.796L106.771 93.754L115.487 79.803L109.221 75.873Z" fill="#DEBE1A"/>
<path d="M83.661 14.421C102.806 33.562 102.806 64.597 83.661 83.732C64.524 102.873 33.492 102.873 14.354 83.732C-4.78401 64.597 -4.78401 33.562 14.354 14.421C33.492 -4.71601 64.524 -4.71601 83.661 14.421Z" fill="#D5E0D5"/>
<path d="M73.699 24.397C87.321 38.033 87.321 60.133 73.699 73.763C60.063 87.385 37.959 87.385 24.33 73.763C10.693 60.133 10.693 38.033 24.33 24.397C37.959 10.768 60.063 10.768 73.699 24.397Z" fill="white"/>
<path d="M77.049 49.082C77.049 64.194 64.793 76.454 49.67 76.454C34.561 76.454 22.301 64.194 22.301 49.082C22.301 33.966 34.56 21.707 49.67 21.707C64.793 21.707 77.049 33.966 77.049 49.082Z" fill="#14A800"/>
<path d="M59.115 46.424C59.115 51.369 55.115 55.38 50.166 55.38C45.217 55.38 41.199 51.369 41.199 46.424C41.199 41.475 45.217 37.464 50.166 37.464C55.114 37.464 59.115 41.475 59.115 46.424Z" fill="#00C217"/>
<path d="M58.116 56.219C56.24 57.752 53.925 58.746 51.387 58.988C50.983 59.038 50.576 59.073 50.158 59.073C49.733 59.073 49.323 59.038 48.912 58.981C46.385 58.74 44.077 57.738 42.207 56.219C36.819 58.683 32.784 63.569 31.488 69.498C36.321 73.806 42.682 76.454 49.67 76.454C57.047 76.454 63.745 73.516 68.666 68.768C67.197 63.164 63.271 58.591 58.116 56.219Z" fill="#00C217"/>
</svg>
