
<svg width="125" height="130" viewBox="0 0 125 130" fill="none" xmlns="http://www.w3.org/2000/svg">
<path d="M64.261 79.187L2.45497 79.174C1.35897 79.174 0.464966 78.285 0.467966 77.187L0.464966 15.387C0.467966 14.289 1.35997 13.401 2.45497 13.401H64.261C65.357 13.401 66.245 14.29 66.245 15.387V77.193C66.245 78.297 65.356 79.18 64.261 79.187Z" fill="#F2F7F2"/>
<path d="M28.756 31.731C28.756 35.667 25.564 38.853 21.621 38.86C17.683 38.86 14.493 35.667 14.493 31.725C14.493 27.789 17.682 24.597 21.628 24.597C25.563 24.591 28.756 27.79 28.756 31.731Z" fill="#FF4B25"/>
<path d="M56.889 35.794C56.381 35.293 55.575 35.312 55.079 35.826L31.853 60.696C31.437 61.146 30.761 61.235 30.241 60.898L14.836 47.995C14.359 47.677 13.712 47.74 13.287 48.141L0.292987 60.397L0.286987 78.323C0.286987 78.793 0.673987 79.179 1.14299 79.179H65.21C65.683 79.179 66.07 78.792 66.07 78.323V45.118L56.889 35.794Z" fill="#E8F1E8"/>
<path d="M54.276 2.634C52.578 0.939 50.325 0 47.926 0C45.532 0.006 43.267 0.933 41.572 2.634C39.871 4.329 38.935 6.582 38.935 8.982L38.932 13.356H41.363L41.369 8.995C41.369 7.244 42.052 5.593 43.29 4.349C44.531 3.118 46.182 2.438 47.927 2.438C49.675 2.438 51.323 3.117 52.554 4.355C53.798 5.593 54.481 7.243 54.481 8.995L54.478 27.359C54.478 28.152 54.166 28.902 53.609 29.461C53.041 30.025 52.295 30.336 51.505 30.336C50.714 30.336 49.962 30.025 49.407 29.461C48.844 28.896 48.54 28.153 48.54 27.359L48.543 10.208C48.543 9.529 47.997 8.996 47.321 8.996C46.658 8.996 46.108 9.529 46.105 10.202V27.36C46.105 28.807 46.664 30.159 47.679 31.174C48.701 32.196 50.06 32.761 51.504 32.761C52.005 32.761 52.482 32.692 52.954 32.571C53.843 32.317 54.655 31.847 55.321 31.175C56.343 30.159 56.902 28.808 56.902 27.361L56.908 8.997C56.907 6.589 55.98 4.335 54.276 2.634Z" fill="#E4EBE4"/>
<path d="M123.604 59.935H46.58C45.968 59.935 45.469 60.43 45.469 61.045V114.581C45.469 115.202 45.968 115.698 46.58 115.698H94.339V128.881C94.339 129.84 95.482 130.36 96.199 129.713L111.83 115.698H123.604C124.211 115.698 124.712 115.202 124.712 114.581V61.045C124.713 60.43 124.212 59.935 123.604 59.935Z" fill="#14A800"/>
<path d="M69.562 84.633C71.324 84.633 72.751 86.055 72.751 87.813C72.751 89.572 71.323 91 69.562 91C67.81 91 66.381 89.572 66.381 87.813C66.381 86.055 67.81 84.633 69.562 84.633Z" fill="white"/>
<path d="M85.0851 84.633C86.8431 84.633 88.2711 86.055 88.2711 87.813C88.2711 89.572 86.8431 91 85.0851 91C83.3331 91 81.9041 89.572 81.9041 87.813C81.9041 86.055 83.3331 84.633 85.0851 84.633Z" fill="white"/>
<path d="M100.617 84.633C102.375 84.633 103.804 86.055 103.804 87.813C103.804 89.572 102.375 91 100.617 91C98.8579 91 97.4299 89.572 97.4299 87.813C97.4309 86.055 98.8579 84.633 100.617 84.633Z" fill="white"/>
</svg>
